<?xml version="1.0" encoding="UTF-8" standalone="no"?>
<svg
   version="1.0"
   width="512.000000pt"
   height="512.000000pt"
   viewBox="0 0 512.000000 512.000000"
   preserveAspectRatio="xMidYMid meet"
   id="svg3"
   sodipodi:docname="app-icon.svg"
   inkscape:version="1.4.2 (f4327f4, 2025-05-13)"
   inkscape:export-filename="app-icon128.png"
   inkscape:export-xdpi="18"
   inkscape:export-ydpi="18"
   xmlns:inkscape="http://www.inkscape.org/namespaces/inkscape"
   xmlns:sodipodi="http://sodipodi.sourceforge.net/DTD/sodipodi-0.dtd"
   xmlns:xlink="http://www.w3.org/1999/xlink"
   xmlns="http://www.w3.org/2000/svg"
   xmlns:svg="http://www.w3.org/2000/svg">
  <defs
     id="defs3">
    <linearGradient
       id="linearGradient8"
       inkscape:collect="always">
      <stop
         style="stop-color:#0000f0;stop-opacity:1;"
         offset="0"
         id="stop10" />
      <stop
         style="stop-color:#000048;stop-opacity:1;"
         offset="1"
         id="stop9" />
    </linearGradient>
    <linearGradient
       inkscape:collect="always"
       xlink:href="#linearGradient8"
       id="linearGradient10"
       x1="757.9201"
       y1="4364.9199"
       x2="4363.3232"
       y2="759.51666"
       gradientUnits="userSpaceOnUse" />
    <linearGradient
       inkscape:collect="always"
       xlink:href="#linearGradient8"
       id="linearGradient1"
       gradientUnits="userSpaceOnUse"
       x1="757.9201"
       y1="4364.9199"
       x2="4363.3232"
       y2="759.51666" />
    <linearGradient
       inkscape:collect="always"
       xlink:href="#linearGradient8"
       id="linearGradient2"
       gradientUnits="userSpaceOnUse"
       x1="757.9201"
       y1="4364.9199"
       x2="4363.3232"
       y2="759.51666" />
    <linearGradient
       inkscape:collect="always"
       xlink:href="#linearGradient8"
       id="linearGradient3"
       gradientUnits="userSpaceOnUse"
       x1="757.9201"
       y1="4364.9199"
       x2="4363.3232"
       y2="759.51666" />
  </defs>
  <sodipodi:namedview
     id="namedview3"
     pagecolor="#ffffff"
     bordercolor="#000000"
     borderopacity="0.25"
     inkscape:showpageshadow="2"
     inkscape:pageopacity="0.0"
     inkscape:pagecheckerboard="0"
     inkscape:deskcolor="#d1d1d1"
     inkscape:document-units="pt"
     inkscape:zoom="0.83589135"
     inkscape:cx="632.85737"
     inkscape:cy="328.39196"
     inkscape:window-width="2560"
     inkscape:window-height="1009"
     inkscape:window-x="1912"
     inkscape:window-y="750"
     inkscape:window-maximized="1"
     inkscape:current-layer="svg3" />
  <g
     transform="matrix(0.09203044,5.505928e-5,5.4604456e-5,-0.08793563,20.120053,481.1022)"
     fill="#000000"
     stroke="none"
     id="g3"
     style="fill:url(#linearGradient10);fill-opacity:1;stroke:#ffffff;stroke-width:355.71461475;stroke-linecap:round;stroke-linejoin:round;stroke-dasharray:none;stroke-opacity:1;paint-order:stroke fill markers">
    <path
       d="M 410,5060 C 248,5031 110,4919 43,4760 L 15,4695 12,3185 C 10,1852 11,1667 25,1605 60,1448 176,1319 338,1257 l 57,-22 2135,-3 c 1610,-2 2149,0 2190,9 30,6 82,25 115,42 72,36 179,141 217,213 61,114 58,29 58,1659 0,1622 3,1541 -55,1656 -50,98 -144,180 -261,227 l -69,27 -2135,1 c -1174,1 -2155,-2 -2180,-6 z m 4040,-533 c 84,-44 79,-3 81,-764 1,-646 0,-674 -18,-705 -10,-18 -34,-43 -53,-55 l -33,-23 h -732 c -402,0 -734,2 -737,5 -3,3 3,47 13,98 56,282 100,529 97,538 -2,5 -130,-54 -286,-131 l -282,-141 -39,-122 c -21,-67 -46,-150 -56,-184 l -18,-63 h -833 c -563,0 -842,3 -861,11 -42,15 -92,68 -103,109 -6,21 -10,287 -10,680 v 645 l 23,40 c 14,26 37,48 67,63 l 44,22 H 2561 4407 Z M 2010,1986 v -255 l -177,-3 c -98,-2 -181,-2 -185,0 -5,2 -8,118 -8,258 v 254 h 185 185 z m -849,193 c 122,-37 185,-184 127,-299 -74,-145 -295,-146 -367,-1 -28,55 -32,85 -20,142 9,41 21,62 58,99 64,64 125,82 202,59 z m 1444,0 c 56,-15 128,-92 143,-151 29,-115 -42,-225 -161,-250 -69,-14 -125,2 -178,49 -96,87 -102,198 -16,290 62,65 129,85 212,62 z m 733,-5 c 130,-42 186,-183 119,-297 -71,-120 -227,-142 -327,-44 -110,107 -64,289 87,343 50,17 61,17 121,-2 z m 759,-5 c 44,-14 109,-88 123,-140 34,-127 -68,-259 -200,-259 -184,0 -278,225 -146,352 62,61 131,75 223,47 z"
       id="path1"
       style="fill:url(#linearGradient1);fill-opacity:1;stroke:#ffffff;stroke-width:355.71461475;stroke-linecap:round;stroke-linejoin:round;stroke-dasharray:none;stroke-opacity:1;paint-order:stroke fill markers" />
    <path
       d="m 2530,4299 c -269,-29 -522,-147 -723,-338 -102,-96 -180,-202 -244,-327 -69,-136 -99,-227 -127,-391 l -5,-33 h 162 162 l 18,78 c 9,42 39,122 66,177 73,153 143,238 275,336 240,180 538,227 818,130 298,-103 531,-365 580,-650 l 12,-71 h 168 c 193,0 178,-10 154,107 -37,172 -94,303 -200,458 -243,355 -697,569 -1116,524 z"
       id="path2"
       style="fill:url(#linearGradient2);fill-opacity:1;stroke:#ffffff;stroke-width:355.71461475;stroke-linecap:round;stroke-linejoin:round;stroke-dasharray:none;stroke-opacity:1;paint-order:stroke fill markers" />
    <path
       d="m 4665,960 c -16,-4 -81,-8 -142,-9 l -113,-1 V 813 c 0,-76 -4,-143 -8,-149 -21,-32 -52,-34 -520,-34 h -470 l -10,43 c -12,46 -51,90 -95,106 -16,6 -80,11 -143,11 h -114 v 80 80 h -494 c -389,0 -494,-3 -493,-12 0,-7 -1,-43 -1,-80 l -2,-66 -128,-4 c -122,-3 -131,-4 -164,-30 -66,-50 -69,-68 -66,-341 l 3,-244 28,-41 c 52,-74 6,-70 839,-73 684,-2 749,-1 772,15 43,28 59,61 57,124 0,31 2,71 5,89 l 6,33 h 519 c 506,0 520,1 576,22 78,28 172,123 201,200 23,62 27,108 24,296 -2,145 1,139 -67,122 z"
       id="path3"
       style="fill:url(#linearGradient3);fill-opacity:1;stroke:#ffffff;stroke-width:355.71461475;stroke-linecap:round;stroke-linejoin:round;stroke-dasharray:none;stroke-opacity:1;paint-order:stroke fill markers" />
  </g>
</svg>
